<?xml version="1.0" standalone="no"?>
<!DOCTYPE svg PUBLIC "-//W3C//DTD SVG 20010904//EN"
 "http://www.w3.org/TR/2001/REC-SVG-20010904/DTD/svg10.dtd">
<svg version="1.0" xmlns="http://www.w3.org/2000/svg"
 width="272.000000pt" height="272.000000pt" viewBox="0 0 272.000000 272.000000"
 preserveAspectRatio="xMidYMid meet">
<metadata>
Created by potrace 1.11, written by Peter Selinger 2001-2013
</metadata>
<g transform="translate(0.000000,272.000000) scale(0.100000,-0.100000)"
fill="#000000" stroke="none">
<path d="M0 1360 l0 -1360 1360 0 1360 0 0 1360 0 1360 -1360 0 -1360 0 0
-1360z m1460 1023 c53 -99 243 -377 337 -491 10 -12 21 -11 77 7 37 12 90 32
120 45 l54 24 -45 -94 c-73 -154 -77 -139 74 -284 72 -69 178 -163 236 -210
58 -46 104 -87 101 -91 -2 -4 -45 -30 -96 -59 -109 -62 -206 -126 -337 -222
l-93 -69 7 -45 c3 -24 19 -84 34 -133 l28 -90 -56 26 c-31 14 -88 37 -128 52
l-72 26 -57 -55 c-75 -73 -247 -269 -309 -353 -27 -36 -52 -67 -55 -67 -3 0
-20 29 -39 65 -58 113 -201 331 -290 444 -18 24 -19 24 -82 11 -35 -7 -96 -23
-135 -35 l-71 -22 39 64 c21 35 50 88 63 119 l25 57 -97 95 c-110 107 -258
234 -345 295 -32 22 -58 43 -58 46 0 4 33 24 73 45 132 72 422 268 455 309 10
12 5 37 -21 123 -19 60 -38 117 -42 127 -6 14 21 4 103 -37 62 -31 120 -56
130 -56 30 0 251 235 382 408 30 39 57 72 60 72 3 0 16 -21 30 -47z"/>
<path d="M1316 1964 c-48 -52 -87 -96 -85 -98 20 -18 313 -43 323 -28 4 8
-138 222 -148 222 0 0 -41 -43 -90 -96z"/>
<path d="M1048 1705 c-2 -3 -1 -28 3 -57 4 -29 8 -95 8 -147 1 -70 4 -92 14
-88 6 2 48 19 92 36 l80 31 47 82 47 83 -27 7 c-61 15 -249 58 -254 58 -2 0
-7 -2 -10 -5z"/>
<path d="M1640 1650 c-30 -5 -92 -8 -137 -9 l-81 -1 36 -89 37 -88 83 -48 c46
-26 85 -45 87 -44 2 2 13 62 25 133 12 70 24 134 27 142 6 15 6 15 -77 4z"/>
<path d="M776 1494 c-49 -35 -93 -64 -98 -64 -22 0 2 -31 81 -103 46 -42 87
-77 92 -77 11 0 21 131 17 226 l-3 82 -89 -64z"/>
<path d="M1875 1463 c-11 -29 -19 -276 -9 -272 23 10 183 125 181 130 -1 4
-39 41 -83 83 -68 63 -83 73 -89 59z"/>
<path d="M1060 1322 c0 -5 -9 -64 -21 -132 -11 -67 -18 -128 -15 -135 4 -11
35 -13 140 -12 75 1 136 5 136 8 0 4 -16 49 -35 100 l-36 94 -76 40 c-96 50
-93 49 -93 37z"/>
<path d="M1565 1260 c-43 -16 -85 -37 -93 -47 -32 -44 -93 -164 -87 -173 3 -5
18 -10 33 -10 14 0 68 -7 119 -17 89 -16 94 -16 113 2 20 18 21 29 18 147 -1
80 -6 128 -13 127 -5 0 -46 -13 -90 -29z"/>
<path d="M1245 767 c32 -48 61 -87 64 -87 14 0 140 149 131 155 -5 3 -64 9
-131 12 l-121 6 57 -86z"/>
</g>
</svg>
